<svg xmlns="http://www.w3.org/2000/svg" viewBox="0 0 40 40" fill="none">
  <!-- Small unified-ui brain logo for top-left -->
  <rect width="40" height="40" rx="8" fill="url(#grad)"/>
  <defs>
    <linearGradient id="grad" x1="0" y1="0" x2="40" y2="40">
      <stop offset="0%" stop-color="#2196F3"/>
      <stop offset="100%" stop-color="#9C27B0"/>
    </linearGradient>
  </defs>
  <!-- Simplified brain -->
  <path d="M20 8 C15 8 11 12 10 17 C9 22 11.5 26 14 27.5 C14.5 27.8 15 28.5 15 30 L15 31 L25 31 L25 30 C25 28.5 25.5 27.8 26 27.5 C28.5 26 31 22 30 17 C29 12 25 8 20 8Z" stroke="white" stroke-width="1.8" fill="none"/>
  <path d="M20 8 L20 31" stroke="white" stroke-width="1" opacity="0.6"/>
  <path d="M13 15 Q16.5 13.5 19.5 16" stroke="white" stroke-width="1.2" fill="none" opacity="0.7"/>
  <path d="M27 15 Q23.5 13.5 20.5 16" stroke="white" stroke-width="1.2" fill="none" opacity="0.7"/>
  <path d="M12 20 Q16 18.5 19.5 21" stroke="white" stroke-width="1.2" fill="none" opacity="0.7"/>
  <path d="M28 20 Q24 18.5 20.5 21" stroke="white" stroke-width="1.2" fill="none" opacity="0.7"/>
  <rect x="16.5" y="31" width="7" height="2" rx="1" fill="white" opacity="0.7"/>
</svg>
